PathFileType	4	(X/Y/Z)	1_2_rein_70_p0_0-542_filt_butterworth.trc
DataRate	CameraRate	NumFrames	NumMarkers	Units	OrigDataRate	OrigDataStartFrame	OrigNumFrames
60.0	60.0	5	27	m	60.0	474	542
Frame#	Time	RHip			RKnee			RAnkle			RBigToe			RSmallToe			RHeel			LHip			LKnee			LAnkle			LBigToe			LSmallToe			LHeel			Neck			Head			Nose			RShoulder			RElbow			RWrist			RThumb			RIndex			RPinky			LShoulder			LElbow			LWrist			LThumb			LIndex			LPinky			
		X1	Y1	Z1	X2	Y2	Z2	X3	Y3	Z3	X4	Y4	Z4	X5	Y5	Z5	X6	Y6	Z6	X7	Y7	Z7	X8	Y8	Z8	X9	Y9	Z9	X10	Y10	Z10	X11	Y11	Z11	X12	Y12	Z12	X13	Y13	Z13	X14	Y14	Z14	X15	Y15	Z15	X16	Y16	Z16	X17	Y17	Z17	X18	Y18	Z18	X19	Y19	Z19	X20	Y20	Z20	X21	Y21	Z21	X22	Y22	Z22	X23	Y23	Z23	X24	Y24	Z24	X25	Y25	Z25	X26	Y26	Z26	X27	Y27	Z27	
474	7.9	0.3735014238698591	0.279866125768187	1.0646524177161847	0.37370194751626606	0.37876302807152934	1.533072268382291	0.3735321134961236	0.4809557089920586	1.9849912343585734	0.37268467901864943	0.22524421341695183	2.010559877957817	0.43243466217794285	0.30125993693619363	2.021649297370307	0.3548680545461157	0.5453907613884701	2.0386428201668383	0.14643478616008002	0.29898335845683977	1.07454139840776	0.14950002865950243	0.416865975453352	1.5659886934238962	0.1497531247113097	0.5436456996838451	2.012060030043565	0.18655846210387883	0.1680478388373463	1.9879226682859228	0.12069663700706443	0.231932477234922	1.9863014079949397	0.15740113559433763	0.6079514530019355	2.07239012802944	0.2563057885682526	0.22556331719591877	0.3976626794079335	0.24909966812793516	0.1552486222258115	0.1543054242114646	0.25495501081383387	0.10179596657598579	0.28437419974043676	0.43551908151267593	0.232067854768108	0.5298452989049698	0.49823370912513243	0.2687484279008153	0.8161897215822354	0.46510122217875005	0.16008589626193567	1.0819286211134995	0.37191340430444375	0.12077019016283587	1.1903866024747385	0.3920291338055046	0.14032951376763797	1.2090979237920332	0.4138928587552533	0.19632993772031518	1.2218029359917073	0.07654653689556384	0.23444182101145705	0.5269111935850083	0.02810711245939655	0.21529005678224014	0.819671034778461	0.12717415534728624	0.10661490911745927	1.0471536925806548	0.223375044189958	0.08234148717403988	1.1249859055382792	0.20079443019684365	0.07064436760220674	1.1575297969971854	0.14436241142147854	0.08059289830668676	1.1624479007399233
475	7.916666666666667	0.3729907278509974	0.2752948936782294	1.0680133659995608	0.3717085944078822	0.38100846657204307	1.5400815761203006	0.3727773715163492	0.4856577859064127	1.9876576917654252	0.37178259221340326	0.22356904311853526	2.0093220354433106	0.430372263966579	0.30134744649136824	2.0212212633940636	0.35531673557537796	0.5452891365758471	2.0386947957650885	0.14605966611242546	0.2963257918163436	1.0744069567293886	0.14781333086159734	0.41086052184799293	1.5660675935329151	0.1510217545606149	0.5458620448271309	2.0118294047453507	0.18684495990052952	0.16541431132859832	1.9878593997970395	0.12233589679152947	0.22724419175787836	1.9859854185614032	0.1573188637694932	0.6086969650736421	2.0723230228047	0.25630268344746643	0.2255032291053726	0.397688166073449	0.2481614372710901	0.15805839199597801	0.15419364180778694	0.2549125777733987	0.10180696829720325	0.28436853279997776	0.437387256829609	0.23103484221589787	0.529679414519005	0.49790437540437227	0.26177216272659454	0.8158236411547716	0.4527275109686329	0.14876292101497987	1.079364218845881	0.35804541170153326	0.10668264717182539	1.1868366845488483	0.377577519390735	0.12951401482988573	1.2061559711132865	0.4050636142024018	0.20103515535326513	1.2233017431870112	0.07657563880281214	0.23433896773553198	0.5280374583153036	0.029394193143518373	0.21326988336139727	0.8209255063489962	0.13231992961062963	0.1032154850369883	1.0443764676779144	0.23122099206771643	0.06952428031921462	1.1179690299049703	0.2170428842642617	0.0589662100238912	1.151966969900219	0.15298109363187257	0.07098675378915643	1.1597378085011
476	7.933333333333334	0.374632347934944	0.26433615045960984	1.0701849199906246	0.37184354426205923	0.3836385267528787	1.5468847102287053	0.3727736246065091	0.4879899730390653	1.9894481856430493	0.36965630219109225	0.21940356935163832	2.007191762430504	0.42826258270962075	0.3004645327467407	2.021070444085243	0.3555631960645701	0.5461341424023013	2.039781497384424	0.1461810545556684	0.2922794701796647	1.0738682146821192	0.14670021558738605	0.39897215182975077	1.5615595250204648	0.15182765426484093	0.5475362250312408	2.0115921083472976	0.18683531693470717	0.15928895993529885	1.9866980228894167	0.12370075788317914	0.22335730182528918	1.9849543018487705	0.15743284585603856	0.6097369324135045	2.072890823295298	0.25630389179981494	0.2254768725927426	0.39770705040748694	0.24691679318308077	0.16179394890456678	0.1540520810463392	0.254878754165927	0.10177210516687715	0.2843791512930419	0.43871463672205	0.23112568894496388	0.529632897335096	0.49797340997840445	0.25286513468151434	0.8157790814288389	0.4390605995450848	0.14376193978724744	1.077930688173775	0.34651300429745635	0.10261365033439863	1.1869367569018252	0.3583719112874639	0.1305195053287966	1.2076694816628935	0.393951247803915	0.2112042468555024	1.226086640385863	0.07663740055524661	0.234276032740943	0.5297487711285891	0.030691782157495583	0.2094084263562076	0.8202624076692726	0.13939397651946903	0.10054124776731643	1.04240702731962	0.23808779802394892	0.05708128874020846	1.1112076269697437	0.2290728131480346	0.044613878691165995	1.1451036649340514	0.16684359860057704	0.057219061363087215	1.1534661004956857
477	7.95	0.37760376530536155	0.25360140843482	1.0709223549518991	0.37491622959902937	0.38546817897353064	1.5515859407734163	0.37286774795046307	0.4887385311763047	1.9902350717943866	0.3665151310707542	0.21356331129856648	2.00508199222442	0.4270631516864119	0.29878365046479594	2.021861615907512	0.3545726653231467	0.5486520472911582	2.042291814677453	0.14696598028823574	0.2898866029839071	1.0733417612262226	0.14689995494244332	0.3879046964630275	1.5569790894266604	0.15178168072180528	0.5478096935107151	2.011230846049166	0.18679035744749714	0.1525778558433132	1.9844515257067508	0.12453673991198096	0.22266148034897026	1.9838652720157524	0.157706886430293	0.6105729615365265	2.073607651496427	0.2563084144528649	0.2254519276324347	0.3977107208147532	0.24604897875592247	0.16497302884883192	0.1538232095846942	0.25483533292390187	0.10163544502841759	0.28440421771037905	0.43942185117307453	0.2311740836591447	0.529628497401771	0.49811278349582977	0.24342190157961494	0.8158647586408487	0.4244606682921933	0.1489727859740087	1.0783637502906016	0.3354723239418965	0.11187792588240306	1.190653117325211	0.3379270146204948	0.14520756850845007	1.2138095443195027	0.3779419702527619	0.22031335062305174	1.227958911564555	0.07685988188412629	0.2343032713444984	0.5313244979449865	0.032194973203126344	0.20483294785501455	0.8187522145013989	0.14900554191746723	0.09902775156801852	1.0406842456758874	0.2445599567614763	0.046885831682721986	1.105712542091343	0.23830036015271006	0.029524417381182742	1.1379113529446614	0.18606621603673307	0.0454829866292116	1.1461175215691093
478	7.966666666666667	0.3794561831496181	0.25132900662547786	1.072428878305467	0.3791940616149768	0.3861605364757433	1.5540110840860186	0.3727241767805664	0.48900538897525747	1.990188506761129	0.36400833803497357	0.20964477438770726	2.004442650224022	0.42702049328230296	0.29820012651316735	2.023820629773586	0.35316127264736213	0.5519510906657635	2.0457529291547676	0.1475741583508399	0.2897376299349502	1.074349249041998	0.14791837276101077	0.3822574781976324	1.5567458108125751	0.1512027153859812	0.546044091409509	2.0105601358376775	0.18652442841952638	0.15091338819916614	1.982865072997325	0.12487826689862486	0.226769456257312	1.9847059752961331	0.15843046439792766	0.6114774562198632	2.074638082383074	0.2563136350408722	0.22542396332685571	0.3977029583753714	0.24601971331345027	0.1673839980665982	0.15332111807553267	0.2547868048384178	0.10143080827236864	0.2844311446851457	0.43945702720751956	0.23090580389428764	0.5296492445580384	0.49810101641217974	0.23635961024629568	0.8163362723893557	0.4097163193203137	0.16132620923097432	1.0798638263969513	0.3221366197347141	0.1319057521406664	1.1950171153953901	0.3201639665661312	0.16410567830255035	1.2196000239529656	0.35744165358761815	0.21786506204841705	1.2256008819572402	0.07743290416044143	0.2345235938434984	0.532059168408049	0.033357211625882885	0.20173457137200376	0.8176642456374261	0.16098456827977314	0.09802053838398425	1.038757050258031	0.25122854147449886	0.04062613121700137	1.1020159641150027	0.24679855511302778	0.017000743787134245	1.132308134534428	0.20652106664514372	0.04443034961117602	1.1421121863420123
